<?xml version="1.0" encoding="utf-8"?>
<!-- Generator: Adobe Illustrator 19.1.0, SVG Export Plug-In . SVG Version: 6.00 Build 0)  -->
<svg version="1.1" id="Layer_1" xmlns="http://www.w3.org/2000/svg" xmlns:xlink="http://www.w3.org/1999/xlink" x="0px" y="0px"
	 viewBox="0 0 1518.9 363.7" style="enable-background:new 0 0 1518.9 363.7;" xml:space="preserve">
<style type="text/css">
	.st0{fill:#3A2B2A;}
</style>
<g>
	<path class="st0" d="M141.9,183.7c-6.6-16.5-5.8-33.8-7.4-50.8c-1.2-13.2-2.5-26.5-4-39.7c-1-8.2-0.4-16.2,2.8-24.9
		c-3,0.6-5.6,0.7-7.9,1.5c-12.8,4.6-25.6,9.1-38.3,14.1c-9,3.5-17.8,7.4-26.4,11.7c-7.4,3.6-14,0.3-20.7-1.7c-1-0.3-1.7-3.5-1.5-5.1
		c1.3-8.1,5.8-14.3,12.9-18c16.2-8.4,32.3-17.3,49.1-24.3c28.6-11.9,58.7-18.7,89.5-22c14.4-1.5,28.9-1.8,43.3,0.7
		c21.1,3.7,36.7,21.3,40.7,41.1c2,10.3-1.5,19.3-8.8,26.9c-1,1.1-1.6,2.6-2.3,3.9c1.5,0.6,2.9,1.5,4.4,1.8
		c18.8,4.2,36.8,10.4,53.6,20.1c16.7,9.6,26.6,23.7,29.9,42.6c1.4,8-2.4,14.6-5.8,21.3c-5.5,10.9-15.7,14.7-26.6,16.2
		c-15.5,2.1-31.1,3.3-46.6,4.8c-34.3,3.3-68.7,5.7-102.9,10c-17.4,2.2-34.5,7.1-51.6,11.5c-19.2,4.9-38,10.9-55.9,19.8
		c-12.4,6.1-23.7,13.5-33.2,23.6c-9.8,10.4-8.8,17.6,4.1,23.1c6.4,2.8,13.7,4.6,20.7,5.1c30.6,2.4,60.9,0.7,90.7-7.1
		c6.5-1.7,12.6-5,19.8-7.9c1.6,6.3,3.8,13.4,5.1,20.6c0.8,3.9-7,13.3-10.9,15.1C125.8,332,92.2,333.6,58,330.8
		c-20.7-1.7-36.3-12.1-49.3-27.9c-13.3-16.1-11.6-52,6.6-68.7c13.8-12.7,29.8-21.2,47.1-27.5c25.2-9.3,50.8-17,77.2-22.1
		C140.4,184.4,141.1,184,141.9,183.7z M221,53c0,0.1,0,0.1-0.1,0.2c-4.2-0.1-8.3-0.6-12.5-0.3c-22.3,1.7-44.1,5.8-65.7,11.7
		c-4,1.1-4,3-2.3,6.1c3.4,6.1,7,12.2,9.5,18.6c2.5,6.3,4.3,13,5.3,19.6c1.3,8.1,1.7,16.5,2.1,24.7c0.7,14.1,1.3,28.2,1.6,42.3
		c0.1,3.9,1.4,4.9,5.1,4.4c8.9-1.3,17.8-2.6,26.8-3.3c39.7-3,79.4-5.6,119-8.7c6.4-0.5,12.9-2,18.9-4.2c7.8-2.8,8-6.1,1.8-11.3
		c-0.9-0.7-1.9-1.4-2.8-2.1c-20.8-15.3-44.6-22.7-69.8-26.5c-12.4-1.8-24.5-0.4-36.1,4.7c-4.2,1.8-8.8-0.2-10.5-4.8
		c-0.9-2.4-1.4-5.1-1.5-7.8c-0.5-10.3,1.1-19.6,11.8-24.7c3.7-1.8,7.4-3.9,10.8-6.3c7.9-5.7,15.7-11.6,23.5-17.5
		c2.8-2.1,2.6-4.8-0.3-6.5c-3.8-2.3-7.8-4.7-12-5.6C236.3,54.4,228.6,53.9,221,53z"/>
	<path class="st0" d="M932.3,153.3c5.3,0,7.5,3.3,9.7,7.6c4.6,9,3.8,18.4,3.2,27.8c-0.3,3.7,0.8,5,4.6,5.1
		c11.9,0.1,11.6,0.2,12.9-11.4c1.3-10.9,3-21.7,5.3-32.4c0.7-3.4,3.8-6.3,5.7-9.4c2.5,2.2,5.7,4,7.4,6.7
		c6.3,9.8,12.3,19.8,18.1,29.9c1.5,2.7,2.9,4,6.1,3.8c3.4-0.2,6.9,0.1,10.4,0.2c0.3,0.4,0.5,0.9,0.8,1.3c-2.6,2.3-5,5-8,6.9
		c-2.5,1.6-2,3.1-1.7,5.4c0.9,6.7,1.7,13.5,1.9,20.2c0.1,3.7-1.9,7.3-6,7.5c-4.2,0.2-5.9-3.3-6.3-7c-0.4-3.8-0.2-7.6-0.6-11.4
		c-0.2-1.5-1-3.3-2.1-4.1c-0.6-0.4-3.1,0.6-3.8,1.6c-4.3,6.2-9.9,7.2-17,4.4c-0.3,3.5-0.1,6.5-0.8,9.3c-0.4,1.7-2,3.9-3.4,4.2
		c-1.2,0.3-3.7-1.5-4.3-2.9c-1.2-2.8-1.7-6-2-9.1c-0.3-3.6-1.8-4.6-5.2-3.6c-6.1,1.7-12.3,2.9-18.3,4.8c-2.1,0.7-4.1,2.7-5.4,4.6
		c-4.5,6.4-10,11.8-17,14.9c-9.4,4.2-18.8,3.4-27.7-2c-1.5-0.9-3.2-2.2-4.9-2.2c-18.4-0.7-32.4-10.7-46.3-21.1
		c-9.8-7.4-19.6-14.8-29.6-21.9c-3.1-2.2-7.1-3.2-10.1-4.5c-3,8.3-5.5,15.7-8.4,23.1c-5.9,15-25.7,22.3-37.5,14.4
		c-8.6-5.8-18.1-10.5-26.9-16c-11.5-7.2-16.3-18.9-19.2-31.4c-1.7-7.4-1.9-15,1.5-22c1.6-3.2,4.3-6.5,7.4-8.1
		c11.9-6.3,25-6.8,38-4.8c8.3,1.3,16.5,3.4,26,5.5c-0.4-4-0.1-7.9-1.3-11.3c-4.5-13.2-9.1-26.4-14.3-39.4c-4-10.2-8.5-20.2-13.5-30
		c-3-5.9-7.2-11.2-10.9-16.7c-6.9-10.3-9.3-22-9.7-34.1c-0.1-1.8,1.7-3.6,2.6-5.4c1.5,0.8,3.5,1.2,4.4,2.4
		c9.3,11.5,19.1,22.7,27.4,34.8c8.8,12.8,13.4,27.8,17.9,42.6c3.8,12.4,8.1,24.6,11.6,37.1c2.2,8,3.3,16.3,5.1,24.3
		c0.4,1.7,1.3,4.1,2.6,4.7c14.5,6.7,26.2,17.6,38.9,26.9c9.2,6.7,19.5,12.1,29.6,17.3c5.8,3,6.5,2,7.7-4.3c5-24.4,20.3-39.8,43-48.4
		c5.7-2.2,8.8,0.4,10.9,8.2C931.8,148.1,931.9,150.6,932.3,153.3z M931.4,155.9c-3.4,6.2-8.3,9.9-14.3,13c-5.4,2.7-10.4,6.6-14.5,11
		c-3.5,3.8-5.6,9-8.8,14.5c6.3,0.2,11-0.3,15.5,0.5c13.7,2.5,20.1-5.5,24.7-16.4c1.3-3.2,1.6-6.7,2.4-10.1
		C937.5,163.4,936.1,159.3,931.4,155.9z M757.1,184.4c9.2-1,12.4-7,15.6-13.1c1.8-3.4,0.5-5-2.8-5.6c-5.2-0.9-10.5-2.7-15.7-2.4
		c-8,0.5-15.9,2.3-23.9,3.8c-1.1,0.2-1.9,1.6-2.9,2.4c0.9,0.9,1.6,2,2.6,2.6c3,1.7,6.1,3.3,9.3,4.7
		C745.5,179.5,751.8,182.1,757.1,184.4z M976.1,162.1c-0.8,0-1.6,0.1-2.4,0.1c-0.2,6.7-0.4,13.4-0.5,20.1c0,0.6,1.5,1.9,2.3,1.8
		c3.2-0.2,6.4-0.8,10.1-1.3C982.2,175.3,979.1,168.7,976.1,162.1z"/>
	<path class="st0" d="M1269.2,146.9c4.3,9.5,4.2,17.5,0.9,25.6c-0.3,0.8-0.7,1.5-1.1,2.2c-8.4,12.7-4.5,24.3,3.3,35.5
		c6.3,9,14.3,16.3,23.4,22.2c2.9,1.9,4.8,3.8,4.9,7.4c0,1.8,0.5,3.6,0.9,5.4c3.6,15.5-8.6,19.9-18.4,16.6
		c-36.5-12.4-73.7-11.7-111.2-7.4c-15,1.8-30.1,3.5-45,6.5c-21.3,4.2-40.8,12.5-55.4,29.5c-3.6,4.3-6.6,9.2-9.6,13.9
		c-2,3.2-1.6,6.1,1.1,9c11.4,12.6,25.7,19.2,42.5,20.6c24.1,2.1,47-3.1,69.4-11.4c6.6-2.5,13.5-4.5,17.6-11.6
		c5.2,13.6,2.8,21.2-10.3,29.5c-10.1,6.4-20.7,11.9-32.5,14.9c-8.3,2.1-16.3,6.5-24.6,7.4c-18.1,1.9-36.5,2.4-51.9-10.2
		c-7-5.8-14.2-11.6-20-18.5c-8.7-10.4-9.6-22.9-5.4-35.4c11.8-35.1,36.8-56.9,72.1-65.4c42.8-10.3,86.5-13.6,130.5-10.2
		c5.6,0.4,5.9,0,4.2-5.2c-1.3-4.3-2.2-8.7-3.1-13.1c-0.7-3.5-1.8-4.6-5.3-2.1c-7.1,5.2-15.3,7.9-24.1,8.6
		c-5.4,0.4-12.1-5.4-14.2-12.1c-4.4-14.3-0.4-27.4,6.1-39.9c3.4-6.4,7.9-12.3,12.6-17.9c7-8.4,16.9-10.9,27.3-11.1
		c6.9-0.2,10.7,2.7,11.6,7.9c1,5.6-1.7,10-7.9,12.2c-4.1,1.5-8.2,2.6-12.4,3.7c-6.6,1.7-11.1,5.8-14.2,11.7c-2.2,4.3-4,8.8-6.1,13.1
		c-1.3,2.6-0.4,4.6,2.2,4.9c6.7,0.7,13.5,1.4,20.2,1.1c1.4-0.1,3.1-4,4-6.4c2.6-6.8,4.2-14,7.5-20.4
		C1260.9,153.8,1265.2,150.9,1269.2,146.9z"/>
	<path class="st0" d="M555.6,323c-9.9,10.1-15.8,14.9-29.6,5.6c-9.8-6.6-19.4-13.4-24.4-24.9c-10.3-23.1-5.1-40.1,13.6-55.2
		c26.3-21.3,56.9-28.8,90-28.3c0.8,0,1.6-0.3,2.9-0.5c-1.1-4.3-2.1-8.5-3.3-12.5c-0.9-2.8-2.5-2.8-4.9-1.1
		c-4.6,3.3-9.3,6.4-14.1,9.3c-7.7,4.6-15.1,2.5-21.1-3c-10.1-9-16-20.5-18.4-34c-2-11-3.3-21.8,1.7-32.3c0.8-1.7,2-3.2,3-4.8
		c0.5,0,1,0,1.5,0c1.3,4.5,3,8.9,4,13.4c1.9,8.6,3.6,17.3,4.9,25.9c1.2,7.9,6.3,12.3,13.4,13.6c7.9,1.5,16.2,1.7,24.3,2.3
		c3.2,0.2,4.4-1.4,4-4.7c-0.7-6.5-1.9-13-1.2-19.4c0.7-6.9,3.3-13.7,5.2-20.5c0.4-1.5,1.4-2.9,2.6-3.9c5.3,8.2,6.7,16,6.7,24.1
		c-0.1,19.6,1.1,38.9,8.8,57.2c1.3,3.1,1.8,6.7,2.1,10.2c0.3,4.4-2.1,6.4-6.4,6.2c-13.3-0.4-26.6-1.3-39.8-0.9
		c-18.2,0.6-34.3,7.5-48.7,18.5c-5.4,4.1-10.5,8.7-15.3,13.5c-7.5,7.5-7.8,13.4,0,20.4c6.9,6.2,14.6,11.5,22.3,16.7
		C544.2,317.5,549.9,320,555.6,323z"/>
	<path class="st0" d="M441.1,215.3c8.4-1.8,16.7-3.6,25.1-5.4c11.8-2.6,23.9-4.5,35.4-8.4c5.9-2,10.9-7.2,15.8-11.5
		c1-0.9,1-4.7-0.1-5.9c-10.5-12.4-24.3-18.9-40.2-20.6c-3.4-0.4-7.1,1.7-11.4,2.8c0.2,6.6,0.5,14,0.7,21.4c0.1,3,0.5,6,0.1,8.9
		c-0.2,1.4-1.4,3.4-2.6,3.7c-1.2,0.3-3.4-0.8-4.1-1.9c-2.1-3.3-4.5-6.8-5.5-10.5c-2-8-3.2-16.3-4.8-24.4c-2-10.3-4.1-20.5-6.2-30.8
		c-0.7-3.5-1.6-6.8,1.4-9.9c9.1,6.8,13.1,16.9,17.1,26.1c3.8-2.5,7.2-4.7,10.6-6.8c6.2-3.9,11-8.9,14.3-15.6c2.2-4.5,1-7.8-3.1-9.4
		c-7.6-2.8-15.4-6.3-23.2-6.9c-12.2-0.8-24.5,0.3-36.7,1.2c-4.8,0.4-9.2,2.4-11.7,7.4c-1.5,3-4,2.3-6.2,0.4
		c-4.7-4.2-4.7-13.1,0.2-18.6c4.8-5.4,10.7-8.9,17.9-10.2c16.2-2.9,32.2-2.6,47.7,3.4c12.7,4.9,22,13.7,27.4,26.2
		c3.6,8.3,1.8,16.2-3.3,23.6c-3.6,5.1-3.3,5.1,2.2,8.3c13.2,7.6,24.3,17.3,31.3,31.3c3.3,6.6,3.6,12.8-0.4,19.4
		c-4.5,7.6-8.7,15.4-16.6,20.2c-15.3,9.3-31.3,14.6-49,7.5c-5.9-2.4-11.7-5.3-17.3-8.4c-2-1.1-3.4-3.2-5.1-4.8
		C440.8,216.5,441,215.9,441.1,215.3z"/>
	<path class="st0" d="M1102,181.6c-6.1,7.3-11.3,15.2-18.2,21.2c-11.5,10-25.8,13.6-40.8,13.2c-13.8-0.4-20.3-9.7-17.2-23.3
		c0.3-1.1,0.3-2.3,0.2-3.4c-0.4-11.1-1.1-22.2-1.3-33.3c-0.1-3.2,1-6.5,1.7-10.7c-4.1,0.3-7.9,0-11.5,0.9c-3.2,0.8-5.5,3.1-4.2,7.2
		c0.4,1.2-0.4,2.8-0.6,4.2c-1.5-0.7-3.5-1-4.5-2.2c-5.7-7.2-2.7-20.6,6-24.5c5-2.3,10.9-4.2,16.2-3.9c23.7,1.2,44.7,9.5,62,26.1
		c2.3,2.2,3.9,5.1,6.8,8.9c0.1-3.3,0.3-5,0.2-6.6c-0.2-3.2-0.8-6.3-0.6-9.4c0.1-1.5,1.4-3,2.2-4.5c1.2,1,2.9,1.7,3.6,2.9
		c6.3,11.4,12.3,23,14.4,35.9c0.9,5.5,0.6,11.2,0.4,16.9c-0.2,4.4-2.7,7.9-7.1,8.5c-2.1,0.3-5.1-1.3-6.7-3.1
		c-2.6-2.9-3.7-6.6-1.1-10.5C1104.7,188.4,1104.2,184.7,1102,181.6z M1033.8,147.6c1,3.2,2,5.4,2.3,7.8c1.5,10.2,2.7,20.4,4.3,30.6
		c0.2,1.5,2.2,4,3,3.8c12.8-1.9,25.9-2.7,37.5-9.2c3.3-1.9,6-4.9,9-7.3c-2.9-2.8-5.3-6.8-8.8-8.3c-13.1-5.9-26.6-11.1-40-16.4
		C1039.1,147.8,1036.7,148,1033.8,147.6z"/>
	<path class="st0" d="M442,172.1c-2.7,2.2-5.2,4.7-8.2,6.4c-3.2,1.9-4.3,4.2-4.1,7.8c0.3,5.8,0.5,11.7,0.1,17.5
		c-0.5,6.7-3.7,11.5-7.6,11.6c-6,0.1-7.6-5-8.9-9.3c-1.4-4.5-2.1-9.4-2.5-14.1c-0.3-3.4-1.2-4.8-4.9-4c-8.9,1.8-17.9,3.4-27.6,5.2
		c1.2,4.5,2.3,9,3.4,13.4c0.4,1.6,1.1,3.2,1.1,4.8c0.1,3.7-2.5,5.3-5.5,3.2c-2-1.5-4.2-3.6-5-5.8c-6.3-16.8-11-34-8.7-52.2
		c1-7.3,3.3-14.5,5.8-21.5c1.9-5.3,5.7-7,11.2-5.7c3.2,0.7,6.3,2.1,9.2,3.8c14.2,8.5,28.1,17.3,35.3,33.4c0.7,1.5,3.2,2.7,5.1,3
		c3.8,0.5,7.7,0.3,11.6,0.5C441.8,170.6,441.9,171.4,442,172.1z M407.4,170c-5.5-9.7-12.4-15.6-21.7-18.3c-1.6-0.5-5.2,1.4-5.8,2.9
		c-1.7,4.4-2.5,9.3-3.2,14c-0.2,1.1,1.8,3.6,2.7,3.6C388.3,171.7,397.2,170.8,407.4,170z"/>
	<path class="st0" d="M1147.9,186.3c-0.8,6.3-1.8,12.6-2.2,18.9c-0.2,3.3-1.4,5.9-4.4,6.2c-1.6,0.1-3.9-1.9-5.1-3.6
		c-6-8.6-5.2-18.8-5.8-28.4c-0.6-10.1,0.5-20.3,0-30.4c-0.4-7.4,4.4-11.9,7.7-17.3c1.8-2.9,3.9-1,5.1,1.5
		c3.9,8.6,7.8,17.3,11.7,25.9c2.7,5.9,6.6,10.7,12.4,14c4.5,2.6,9.2,2.1,13.3-1.6c3.6-3.3,3.8-6.9,1.8-11.3
		c-2.4-5.4-4.5-11.1-6.2-16.8c-0.5-1.8,0.8-4.2,1.2-6.3c1.9,0.6,4.1,0.9,5.8,1.9c5.4,3.2,6,9.3,7.9,14.6c4.3,12.4,7.7,25.3,0.9,37.7
		c-7.9,14.4-19,18.9-32.1,7c-3.1-2.7-5.6-6.2-8.1-9.5c-0.9-1.1-0.9-2.8-1.4-4.3C1149.5,185.1,1148.7,185.7,1147.9,186.3z"/>
	<path class="st0" d="M1384.8,216.1c-1,1.9-1.8,5.4-3.8,6.4c-1.9,1-5.4,0-7.7-1.2c-5.6-2.9-10.4-13.7-9.2-19.8
		c0.7-3.4,3.4-5.2,5.7-3.2c5,4.2,9.3,9.2,13.8,14C1384.3,213.1,1384.2,214.3,1384.8,216.1z"/>
	<path class="st0" d="M1446.5,214.7c-0.1,6.5-4.1,8.3-9.8,5.8c-7.2-3.3-9.1-9.2-9-16.1c0-2.1,1.7-4.7,3.5-6c0.8-0.6,3.8,0.8,5.3,1.9
		C1441.5,204,1445.9,208.3,1446.5,214.7z"/>
	<path class="st0" d="M1518.9,215.3c-1.8,2.5-3.1,5.9-5.2,6.6c-1.5,0.5-4.9-2.1-6.3-4.1c-3.5-4.7-6.1-10.1-4.1-16.1
		c0.7-2.1,3.1-3.9,5.1-5.2c0.4-0.2,3.2,2.2,4,3.8C1514.7,205,1516.6,209.8,1518.9,215.3z"/>
	<path class="st0" d="M1104.3,125.2c-0.7,2.5-0.8,4.7-1.9,6.2c-1,1.4-3.1,2.7-4.8,2.7c-1.3,0-3.5-1.8-3.9-3.2
		c-2.2-6.8-2.9-13.7,1.6-20.1c2.1-3.1,4.6-2.6,5.6,0.3C1102.6,115.7,1103.3,120.7,1104.3,125.2z"/>
</g>
</svg>
