<?xml version="1.0" encoding="utf-8"?>
<!-- Generator: Adobe Illustrator 19.1.0, SVG Export Plug-In . SVG Version: 6.00 Build 0)  -->
<svg version="1.1" id="Layer_1" xmlns="http://www.w3.org/2000/svg" xmlns:xlink="http://www.w3.org/1999/xlink" x="0px" y="0px"
	 viewBox="0 0 1424.4 636.7" style="enable-background:new 0 0 1424.4 636.7;" xml:space="preserve">
<style type="text/css">
	.st0{fill:#3A2B2A;}
</style>
<g>
	<path class="st0" d="M386.1,392.1c3.6-6.1,7.6-11.9,10.6-18.2c6.8-14.1,13.1-28.4,19.5-42.7c1.3-2.9,2.1-6,2.9-9
		c1.3-5.1,2.8-5.6,7.8-4.4c6.4,1.5,13,2,19.5,3.2c11.3,2.1,26.1,15,27.2,30c1,13.3-0.8,26.1-2.5,39.1c-0.6,4.3-1.1,8.7-1.4,13.1
		c-0.3,5.5,4,9.5,9.5,8.9c5-0.5,9.3-2.6,12.4-6.7c13.8-18.8,21.9-39.3,18.5-63.3c-1.1-8.2-0.6-16.6-1.4-24.9
		c-0.7-6.8-0.6-13.7-5.1-19.9c-1.5-2,0.6-7.2,2-10.5c1.4-3.2,4.2-1.1,6.5-0.2c1.2,0.5,2.5,1,3.8,1.3c13.1,2.6,24.7,7.7,33.4,18.4
		c1.4,1.8,3.9,2.7,6.7,4.5c1.9-6.4,3.5-12,5.1-17.5c0.2-0.6,0.2-1.3,0.4-1.9c4.2-10.5,7.6-21.5,13-31.3c5.5-10,12.6-19.1,19.6-28.2
		c3.2-4.1,7.8-7.1,11.6-10.7c2-1.9,3.5-4.4,5.5-6.2c12.3-11.4,26-20.6,40.6-28.7c11.7-6.5,23.3-13.3,34.9-19.9
		c1.4-0.8,3-1.4,4.6-1.8c4.6-1.3,5.4,0,6.2,4.7c1.2,7.3-2.5,11.1-8.2,14.2c-5.5,3-11.6,5.7-16.1,9.8c-5.2,4.8-11.3,8.6-14.3,15.9
		c-2.1,5.2-7.2,9-10.3,13.8c-5.1,8-10.1,16.2-14.3,24.6c-2.9,5.8-4.2,12.5-6.7,18.6c-3.5,8.6-6.9,17.3-11.4,25.4
		c-5.9,10.8-11.1,22.5-10.7,34.3c0.7,20.7-6.3,40.7-4.1,61.4c1.4,12.9,3.5,25.3,10.1,36.7c1.8,3,2.7,6.8,2.9,10.3
		c0.4,5.6-3.3,8.7-8.8,9.2c-9.3,0.9-16.2-2.8-22.9-9.2c-8-7.8-13.4-17.4-17.4-27c-5.9-14.4-9-30.1-12.4-45.4
		c-1.6-7-6.4-20.5-12.2-25.1c0.8,8.8,1,17.7,2.7,26.3c3.2,16.1,0.4,31.1-7.2,45.3c-3.4,6.4-7.3,12.7-11.7,18.5
		c-1.7,2.3-5.3,3.3-8,4.8c-1.1,0.6-2.6,0.8-3.5,1.6c-5.6,5-12,3.8-18.8,3.3c-9.6-0.7-16.2-5.6-22.2-12.3c-0.8-0.9-2.1-1.4-4.1-2.7
		c-1,5.4-2.1,10.2-2.8,15c-2.1,13.8-4.1,27.6-5.9,41.4c-0.7,4.9-0.6,9.9-1.2,14.8c-1,7.4-2.3,14.7-3.5,22c-3,17.5-8.5,34.3-16.5,50
		c-5.2,10.3-10.8,21.3-19.1,28.9c-10.8,9.9-22,21.5-38.9,20.7c-6.9-0.3-15-0.2-20.1-3.8c-4.4-3.2-10-3.8-13.3-7
		c-4-3.9-9.2-4.5-13.2-7.6c-7.6-5.8-14.8-12.1-22.1-18.3c-3.1-2.7-6.4-5.4-8.9-8.7c-10.7-13.7-21.7-27.2-31.4-41.5
		c-3.5-5.2-3.7-12.6-5.5-19c0.5-0.1,1-0.2,1.5-0.3c2.2,2.7,4.6,5.2,6.7,8c4.8,6.5,9.5,13.2,14.2,19.7c1.3,1.8,2.3,3.8,3.9,5.2
		c9.3,8.2,18.4,16.7,28.1,24.3c6.7,5.3,22.1,4.6,28.8-1c6.8-5.8,12.7-12.6,19.2-18.7c7.7-7.3,9.3-17.5,13.6-26.4
		c7.2-14.8,10.4-30.8,14.6-46.5c1.2-4.4,0.1-6.2-5-7.2c-8.4-1.6-17.3-3.4-24.5-7.5c-6.5-3.8-11.3-10.6-16.3-16.6
		c-4.3-5-8.1-10.5-11.5-16.2c-2-3.3-2.9-7.2-5.2-10.7c0.1,4.8,0.9,9.7,0.2,14.3c-0.9,5.7-4.3,10.2-10.2,12
		c-12.8,3.9-24.4,2.3-36.3-4.5c-13.2-7.5-22-18.3-29.7-30.6c-3.1-4.9-6.2-9.9-7.9-15.3c-1.9-5.7-3-12-2.9-18
		c0.2-22.6,1.1-45.3,1.7-67.9c0-1.1-0.1-2.3-0.2-4.8c-3.6,2.5-6.7,4.3-9.3,6.6c-7.3,6.6-15.5,7.2-25.1,6.4
		c-14.2-1.2-23.5-10.3-33.8-17.9c-5.2-3.8-6.9-3.6-8.4,2.7c-2.6,10.3-6.9,20.6-7.3,31c-0.5,12.7-6.3,23.7-8,35.8
		c-2.1,15.5-8.3,29.6-13.9,43.9c-3.3,8.4-6.4,16.8-10.1,25c-5.5,12.1-12.7,23.1-22.7,31.9c-7.1,6.2-15.9,8.4-25,8
		c-6.6-0.3-13.6-0.8-19.7-3.1c-17.1-6.5-30.9-17.7-40.4-33.4C19,426.7,13,416.6,9.5,405.8c-3.8-11.6-6.1-24-6.6-36.1
		C2.1,350,2.8,330.1,4,310.3c0.5-8.5,4-16.8,6.2-25.1c0.1-0.3,0.3-0.7,0.5-0.9c6-5.5,12.2-11,20.7-11.6c13.8-1,23.6,8.9,22.6,23
		c-1,15.7-3.3,31.3-4.1,47.1c-0.6,11.6-0.8,23.5,0.9,34.9c2.1,13.8,4.3,28,12.8,39.9c0.8,1.1,2.1,2.3,3.3,2.5
		c0.7,0.1,2.1-1.4,2.7-2.4c8.6-16.3,16.4-33,21.7-50.8c4-13.4,9.1-26.4,13.2-39.8c8.8-28.8,15.8-58.1,20.8-87.8
		c2.1-12.6,4.3-25.3,6.7-37.8c0.4-2.4,2-4.5,2.5-5.6c1.1-7.1,1.6-13.4,3-19.4c1.5-6.4,4.2-12.6,5.8-18.9c1.6-6.1,2.4-12.4,3.6-18.6
		c1.1-5.9,2-11.8,3-17.7c0.2-1.1,0.2-2.5,0.9-3.3c7.4-8.5,5.1-19.6,8.1-29.3c2.1-6.7,1.4-14.6,8.2-19.2c5.8-3.9,11.8-7.6,19.5-5.7
		c8.4,2.1,13,7.4,14.1,17.1c1.4,13,1.4,26.2,4.3,38.9c2.6,11.6-0.6,22-2,32.9c-1.6,12.2-3.1,24.4-5.1,36.5
		c-0.9,5.2-3.2,10.1-4.4,15.3c-3.6,14.8-5.3,29.9-3.4,45c0.6,4.8,3,9.4,5.2,13.8c1.6,3.3,4.1,3.1,5.8-0.3
		c5.1-10.1,10.5-20.1,15-30.4c9.9-22.7,19.7-45.5,29-68.5c10.6-26.2,20.9-52.5,30.9-79c4-10.6,6.6-21.6,9.8-32.5
		c1.8-6.2,10.2-12.2,16.4-13.6c8.7-2,14.5,3.4,20.1,7.7c2.8,2.1,3.8,7.7,3.9,11.8c0.1,5-0.7,10.4-2.5,15.2
		c-4.5,12.2-4,24.6-2.3,36.9c1.6,12.5-0.1,24.8-0.6,37.2c-0.2,4.3-0.1,8.7-0.7,12.9c-2.8,20.1-5.2,40.2-3.8,60.6
		c0.6,8,1.8,16,1.5,23.9c-1.1,26.7,1.9,53.4-2,80.1c-2.4,16.7-3.1,33.7-4,50.6c-0.3,5.6,0.8,11.3,1.3,16.9c0.4,3.8,2.3,4.5,5.4,2.5
		c2.1-1.3,4.7-2.1,6.3-3.9c1.7-1.9,3.9-4.9,3.6-7c-2.3-16.1,3-31.1,6.5-46.2c3.1-13.4,7.4-26.6,11.2-39.9c0-0.2,0.1-0.3,0.1-0.5
		c2.8-9.9,2.8-9,13.7-8.2c14.1,1,22.6,9,29.9,19.6c3.9,5.7,4.2,11.6,2.9,18.5c-2.7,15.2-4.4,30.6-6.5,45.9
		c-0.7,5.2-1.2,10.5-1.8,15.8c-0.1,0.7,0.3,1.5,0.4,2.3C385.3,391.8,385.7,391.9,386.1,392.1z"/>
	<path class="st0" d="M1099.7,384.8c-1.4,5.9-2.2,12-4.3,17.6c-2.7,7.4-8.2,13-13.6,18.8c-7,7.7-14.7,14.2-24.1,18.5
		c-1.8,0.8-3.7,1.6-5.6,1.7c-7.3,0.4-14.5,0.6-21.8,0.5c-2.3,0-4.7-1.3-6.9-2.3c-11.3-5.2-21.4-12.2-28.9-22.2
		c-3.1-4.2-4.7-9.5-7-14.3c-1.1-2.3-2.2-4.7-3.8-8.2c-5,10.1-9.8,18.9-13.7,28c-1.5,3.5-1.3,7.8-1.3,11.8c0,8-9.7,13.4-18.4,11.5
		c-14.2-3-22.5-13.5-31.6-23c-13.7-14.3-21.5-32.1-27.9-50.5c-0.9-2.6-2.3-5.3-4.2-7.3c-1-1-4.1-1.6-5.1-0.8
		c-6.8,5.5-13.6,11-19.7,17.3c-2.6,2.7-3.7,6.9-5.3,10.6c-3.2,7.4-6,15.1-9.7,22.3c-1.1,2.2-4.5,4.4-7,4.6c-7,0.5-12.9-2.2-16.7-8.5
		c-0.2-0.3-0.2-0.7-0.5-0.9c-10.1-7.3-9.2-19.6-12.9-29.7c-1.9-5.1-0.3-11,3.1-15.6c5.1-6.8,10.7-13.1,15.5-20
		c6.1-8.9,10.9-18.7,17.2-27.3c15.7-21.3,26.7-45.3,41-67.4c8.3-12.8,14.7-26.8,22.6-39.8c11-18.1,22.5-35.8,34-53.5
		c3.5-5.5,7.4-10.7,11.6-16.8c-1.4-0.1-3.4-0.5-5.2-0.3c-15.8,1.5-31.7,3.9-47.5,4.3c-6.7,0.2-13.6-3.5-20.4-5.3
		c-2.4-0.7-4.8-2-7.1-1.8c-9.5,0.9-14.5-5.2-19.1-11.8c-2.3-3.4-3.5-7.5-5.5-11.1c-5-8.8-4.5-17.8-1.4-27c2.7-8,4.9-16.2,8.1-24
		c3.4-8.4,10-11.2,19.1-9.3c8.6,1.8,13.2,9.9,10.7,18.3c-2.2,7-4.2,14-1.6,21.5c1.6,4.6,4.4,6.4,9.1,5.4c12.2-2.5,24.5-5,36.7-7.6
		c8.1-1.7,16.3-3.2,24.3-5.4c22.5-6.1,43.7-15.1,63.2-27.8c2.2-1.4,4.1-3.4,6.3-4.9c7.7-5.5,15.5-10.8,23.1-16.4
		c4.5-3.3,8.5-7.5,13.2-10.5c2.3-1.5,6.1-2.2,8.5-1.3c1.5,0.5,2.1,4.6,2.4,7.2c0.4,3.4,0.8,7,0.1,10.3c-0.7,3.3-2.2,6.5-4,9.4
		c-11,17.6-20.6,36.1-34.3,52c-5.2,6-8.7,13.3-13.7,19.5c-5.7,7.1-12.6,13.2-18.3,20.3c-6.1,7.8-11.1,16.4-17.1,24.3
		c-4.8,6.3-10.5,11.8-15.4,18c-4.1,5.2-7.7,10.7-11.1,16.4c-9.6,15.7-19.3,31.3-28.3,47.3c-5.6,9.9-9.8,20.6-14.9,30.8
		c-1.3,2.6-3.6,4.7-5.2,7.2c-1.6,2.6-2.8,5.4-4.1,8.1c-1.3,2.9-1.7,6.8-3.9,8.5c-7.4,5.6-7.2,15.2-12.6,21.8
		c-2.2,2.6-1.1,4.9,1.7,6.6c5.2,3,10.7,5.5,15.3,9.2c6.2,5,13.3,9.1,16.9,17c2.2,5,6.3,9.2,9.2,14c2.9,4.7,5.7,9.4,7.9,14.4
		c1.9,4.3,4.1,6.1,8.8,4.5c7.2-2.5,14.5-4.5,21.5-7.3c3.3-1.3,6.1-3.8,8.9-6.1c0.8-0.6,1.1-2.3,1-3.5c-1.5-16.2,2.7-31.4,6.6-47
		c3.6-14.2,9.9-26.8,16.9-39.2c9.7-17.1,24.6-26.5,44.3-27c5.4-0.1,11,2.8,16.3,4.8c5.9,2.2,11.7,4.7,17.4,7.5
		c10.4,5,15.6,14.2,18.2,24.9c0.4,1.8-1.9,5.3-3.9,6.4c-3.5,2-7.7,3.1-11.7,4c-4,0.9-4.9,2.9-3.1,6.4c1.3,2.6,2.7,5.3,4,8
		c3.3,6.8,6.6,13.6,11,20.4c0.7-3.4,1.5-6.7,2-10.1c2.3-15.5,7.8-29.5,18.4-41.3c5.4-6,10.1-12.8,16.2-18
		c4.9-4.3,11.2-7.2,17.1-10.1c10.1-5,19.5-0.9,28.5,3.4c9.5,4.5,18.4,9.8,24.1,19.3c3.3,5.5,8.6,10,10.8,15.8
		c3.4,9.1,5,18.9,5.8,28.8c0.7,8.4,1.1,16.7-0.1,25c0,0.3,0,0.7,0,1c4.5,17.9-6.6,29.5-16.8,41.4c-5,5.9-9.9,11.9-15.4,17.4
		c-9.8,9.7-21.1,17.6-35.7,15.2c-7.6-1.3-15.2-4.9-21.9-8.9c-13.4-7.8-20.2-21.1-25.8-34.9c-0.5-1.2-1.4-2.2-2.2-3.4
		C1100.6,384.4,1100.1,384.6,1099.7,384.8z M1126.5,356.5c0.5,3,0.9,6.8,1.6,10.4c0.6,3.1,1.9,6,2.5,9.1c1.1,5.2,3,6.2,7.6,3.2
		c5.4-3.5,10.5-7.3,15.6-11.2c17.7-13.6,26.6-33.3,35.4-52.8c0.5-1,0.1-3-0.6-3.8c-1.9-2-4-4.1-6.5-5.1c-3.3-1.3-7.4-3-10.3-2.1
		C1146.4,312,1132.1,329.9,1126.5,356.5z M1062.7,321.3c0.2-2.3,0.3-4.6,0.5-7c0.3-5.5-0.9-6.7-5.8-4.3
		c-10.5,5.3-19.8,11.8-25.9,22.4c-6.7,11.6-10,24.2-13.1,36.9c-1.1,4.6-1.2,9.5-1.1,14.2c0,1.3,2.3,3.4,3.9,3.7
		c1.9,0.4,4.6-0.2,6.1-1.4c5.8-4.8,12-9.4,16.7-15.2C1055.6,356.5,1062,339.9,1062.7,321.3z"/>
	<path class="st0" d="M1294.9,358.7c-0.5,0.9-0.8,1.5-1,2.1c-3.3,10.8-6.6,21.6-9.7,32.4c-1.5,5.3-2.8,10.7-3.1,16.1
		c-0.9,15.3-13.7,21.5-25.1,22.9c-14.6,1.8-32.5-10.5-38-27.9c-0.9-2.9-1.8-6.1-1.6-9.1c0.3-4,3-4.9,6.4-2.7
		c0.1,0.1,0.3,0.2,0.4,0.3c13.6,9.5,16.6,8.4,21.7-7.1c3.6-10.9,8.4-21.4,11.6-32.4c3.2-11.1,5.2-22.6,7.5-34
		c1.9-9.3,3.4-18.6,5.2-28c0.6-3.2,2.5-4.7,5.7-3.6c7.3,2.5,14.1,5.9,17.4,13.6c0.3,0.8,1.1,1.5,1.1,2.2c0.2,8.7,6.4,14,11.4,19.9
		c2.9,3.4,5.5,2.9,6.9-1.3c1.5-4.4,2.2-9,3.2-13.6c3-13.8,5.7-27.6,9.2-41.3c2.1-8.3,5-16.3,10.6-23.4c3.4-4.2,4.1-10.4,7.1-15
		c10-15.1,21.5-29,34.5-41.7c12.7-12.4,26.8-22.9,42.1-31.9c1.4-0.9,3.3-1.1,4.9-1.6c0.4,2.2,1.3,4.4,1.1,6.6
		c-0.3,3.2-1.4,6.4-1.9,9.6c-0.7,4.7-3.6,7.5-7.4,9.8c-3.1,1.9-6.3,3.7-5.7,8.4c0.2,1.2-1.9,2.9-3.1,4.2c-4,4.4-9,8.1-9.7,14.7
		c-0.1,1-1.3,1.9-1.8,2.9c-2.7,4.5-8.4,7.2-7.7,13.7c0.1,0.9-1.1,2-1.6,3c-5.6,10.3-11.7,20.3-16.5,30.9
		c-7.3,16.1-11.7,33-14.3,50.6c-2.6,17.7-6.5,35.3-9.9,52.9c-3.6,18.9-7.2,37.8-11.2,56.7c-0.4,2.1-2.8,4.7-4.9,5.4
		c-4.2,1.5-9,0.5-11.1-3.5c-6.2-11.7-12.9-23.2-13.4-37C1304,373.8,1302.8,365.1,1294.9,358.7z"/>
	<path class="st0" d="M393.7,208.6c8.6,3,17.6,5.4,25.8,9.4c8,3.9,7.6,9.9,0.3,14.6c-1.9,1.2-3.7,2.8-5.4,4.3
		c-4.3,3.6-8.9,5.4-14.7,3.2c-2.5-0.9-5.6-1-8.4-0.7c-8.9,0.9-16.7-3-20.2-11.1c-1-2.3-0.3-5.3-0.2-8c0.1-1.3,1.2-2.6,1-3.7
		c-1-5.5,2.4-6.8,6.6-7.1c5-0.3,10-0.1,14.9-0.1C393.5,209.2,393.6,208.9,393.7,208.6z"/>
	<path class="st0" d="M431.2,219c0.2-0.8,0.6-1.9,0.8-3c2.2-9.9,2.2-9.8,12.1-6.8c4.6,1.4,9.5,1.8,13.9,3.5
		c4.1,1.6,7.9,4.1,11.5,6.7c6.1,4.5,5.7,10.1,0.3,15.4c-6.5,6.5-14.9,5.4-22.7,7c-0.5,0.1-1-0.1-1.5-0.3
		C439.2,239.6,430.3,226,431.2,219z"/>
</g>
</svg>
